<svg id="mermaid-1559364669233" width="100%" xmlns="http://www.w3.org/2000/svg" height="100%" viewBox="0 0 558.34375 356.25"><style>


#mermaid-1559364669233 .label {
  font-family: 'trebuchet ms', verdana, arial;
  color: #333; }

#mermaid-1559364669233 .node rect,
#mermaid-1559364669233 .node circle,
#mermaid-1559364669233 .node ellipse,
#mermaid-1559364669233 .node polygon {
  fill: #ECECFF;
  stroke: #9370DB;
  stroke-width: 1px; }

#mermaid-1559364669233 .node.clickable {
  cursor: pointer; }

#mermaid-1559364669233 .arrowheadPath {
  fill: #333333; }

#mermaid-1559364669233 .edgePath .path {
  stroke: #333333;
  stroke-width: 1.5px; }

#mermaid-1559364669233 .edgeLabel {
  background-color: #e8e8e8; }

#mermaid-1559364669233 .cluster rect {
  fill: #ffffde !important;
  stroke: #aaaa33 !important;
  stroke-width: 1px !important; }

#mermaid-1559364669233 .cluster text {
  fill: #333; }

#mermaid-1559364669233 div.mermaidTooltip {
  position: absolute;
  text-align: center;
  max-width: 200px;
  padding: 2px;
  font-family: 'trebuchet ms', verdana, arial;
  font-size: 12px;
  background: #ffffde;
  border: 1px solid #aaaa33;
  border-radius: 2px;
  pointer-events: none;
  z-index: 100; }

#mermaid-1559364669233 .actor {
  stroke: #CCCCFF;
  fill: #ECECFF; }

#mermaid-1559364669233 text.actor {
  fill: black;
  stroke: none; }

#mermaid-1559364669233 .actor-line {
  stroke: grey; }

#mermaid-1559364669233 .messageLine0 {
  stroke-width: 1.5;
  stroke-dasharray: '2 2';
  stroke: #333; }

#mermaid-1559364669233 .messageLine1 {
  stroke-width: 1.5;
  stroke-dasharray: '2 2';
  stroke: #333; }

#mermaid-1559364669233 #arrowhead {
  fill: #333; }

#mermaid-1559364669233 #crosshead path {
  fill: #333 !important;
  stroke: #333 !important; }

#mermaid-1559364669233 .messageText {
  fill: #333;
  stroke: none; }

#mermaid-1559364669233 .labelBox {
  stroke: #CCCCFF;
  fill: #ECECFF; }

#mermaid-1559364669233 .labelText {
  fill: black;
  stroke: none; }

#mermaid-1559364669233 .loopText {
  fill: black;
  stroke: none; }

#mermaid-1559364669233 .loopLine {
  stroke-width: 2;
  stroke-dasharray: '2 2';
  stroke: #CCCCFF; }

#mermaid-1559364669233 .note {
  stroke: #aaaa33;
  fill: #fff5ad; }

#mermaid-1559364669233 .noteText {
  fill: black;
  stroke: none;
  font-family: 'trebuchet ms', verdana, arial;
  font-size: 14px; }

#mermaid-1559364669233 .activation0 {
  fill: #f4f4f4;
  stroke: #666; }

#mermaid-1559364669233 .activation1 {
  fill: #f4f4f4;
  stroke: #666; }

#mermaid-1559364669233 .activation2 {
  fill: #f4f4f4;
  stroke: #666; }


#mermaid-1559364669233 .section {
  stroke: none;
  opacity: 0.2; }

#mermaid-1559364669233 .section0 {
  fill: rgba(102, 102, 255, 0.49); }

#mermaid-1559364669233 .section2 {
  fill: #fff400; }

#mermaid-1559364669233 .section1,
#mermaid-1559364669233 .section3 {
  fill: white;
  opacity: 0.2; }

#mermaid-1559364669233 .sectionTitle0 {
  fill: #333; }

#mermaid-1559364669233 .sectionTitle1 {
  fill: #333; }

#mermaid-1559364669233 .sectionTitle2 {
  fill: #333; }

#mermaid-1559364669233 .sectionTitle3 {
  fill: #333; }

#mermaid-1559364669233 .sectionTitle {
  text-anchor: start;
  font-size: 11px;
  text-height: 14px; }


#mermaid-1559364669233 .grid .tick {
  stroke: lightgrey;
  opacity: 0.3;
  shape-rendering: crispEdges; }

#mermaid-1559364669233 .grid path {
  stroke-width: 0; }


#mermaid-1559364669233 .today {
  fill: none;
  stroke: red;
  stroke-width: 2px; }



#mermaid-1559364669233 .task {
  stroke-width: 2; }

#mermaid-1559364669233 .taskText {
  text-anchor: middle;
  font-size: 11px; }

#mermaid-1559364669233 .taskTextOutsideRight {
  fill: black;
  text-anchor: start;
  font-size: 11px; }

#mermaid-1559364669233 .taskTextOutsideLeft {
  fill: black;
  text-anchor: end;
  font-size: 11px; }


#mermaid-1559364669233 .taskText0,
#mermaid-1559364669233 .taskText1,
#mermaid-1559364669233 .taskText2,
#mermaid-1559364669233 .taskText3 {
  fill: white; }

#mermaid-1559364669233 .task0,
#mermaid-1559364669233 .task1,
#mermaid-1559364669233 .task2,
#mermaid-1559364669233 .task3 {
  fill: #8a90dd;
  stroke: #534fbc; }

#mermaid-1559364669233 .taskTextOutside0,
#mermaid-1559364669233 .taskTextOutside2 {
  fill: black; }

#mermaid-1559364669233 .taskTextOutside1,
#mermaid-1559364669233 .taskTextOutside3 {
  fill: black; }


#mermaid-1559364669233 .active0,
#mermaid-1559364669233 .active1,
#mermaid-1559364669233 .active2,
#mermaid-1559364669233 .active3 {
  fill: #bfc7ff;
  stroke: #534fbc; }

#mermaid-1559364669233 .activeText0,
#mermaid-1559364669233 .activeText1,
#mermaid-1559364669233 .activeText2,
#mermaid-1559364669233 .activeText3 {
  fill: black !important; }


#mermaid-1559364669233 .done0,
#mermaid-1559364669233 .done1,
#mermaid-1559364669233 .done2,
#mermaid-1559364669233 .done3 {
  stroke: grey;
  fill: lightgrey;
  stroke-width: 2; }

#mermaid-1559364669233 .doneText0,
#mermaid-1559364669233 .doneText1,
#mermaid-1559364669233 .doneText2,
#mermaid-1559364669233 .doneText3 {
  fill: black !important; }


#mermaid-1559364669233 .crit0,
#mermaid-1559364669233 .crit1,
#mermaid-1559364669233 .crit2,
#mermaid-1559364669233 .crit3 {
  stroke: #ff8888;
  fill: red;
  stroke-width: 2; }

#mermaid-1559364669233 .activeCrit0,
#mermaid-1559364669233 .activeCrit1,
#mermaid-1559364669233 .activeCrit2,
#mermaid-1559364669233 .activeCrit3 {
  stroke: #ff8888;
  fill: #bfc7ff;
  stroke-width: 2; }

#mermaid-1559364669233 .doneCrit0,
#mermaid-1559364669233 .doneCrit1,
#mermaid-1559364669233 .doneCrit2,
#mermaid-1559364669233 .doneCrit3 {
  stroke: #ff8888;
  fill: lightgrey;
  stroke-width: 2;
  cursor: pointer;
  shape-rendering: crispEdges; }

#mermaid-1559364669233 .doneCritText0,
#mermaid-1559364669233 .doneCritText1,
#mermaid-1559364669233 .doneCritText2,
#mermaid-1559364669233 .doneCritText3 {
  fill: black !important; }

#mermaid-1559364669233 .activeCritText0,
#mermaid-1559364669233 .activeCritText1,
#mermaid-1559364669233 .activeCritText2,
#mermaid-1559364669233 .activeCritText3 {
  fill: black !important; }

#mermaid-1559364669233 .titleText {
  text-anchor: middle;
  font-size: 18px;
  fill: black; }

#mermaid-1559364669233 g.classGroup text {
  fill: #9370DB;
  stroke: none;
  font-family: 'trebuchet ms', verdana, arial;
  font-size: 10px; }

#mermaid-1559364669233 g.classGroup rect {
  fill: #ECECFF;
  stroke: #9370DB; }

#mermaid-1559364669233 g.classGroup line {
  stroke: #9370DB;
  stroke-width: 1; }

#mermaid-1559364669233 .classLabel .box {
  stroke: none;
  stroke-width: 0;
  fill: #ECECFF;
  opacity: 0.5; }

#mermaid-1559364669233 .classLabel .label {
  fill: #9370DB;
  font-size: 10px; }

#mermaid-1559364669233 .relation {
  stroke: #9370DB;
  stroke-width: 1;
  fill: none; }

#mermaid-1559364669233 #compositionStart {
  fill: #9370DB;
  stroke: #9370DB;
  stroke-width: 1; }

#mermaid-1559364669233 #compositionEnd {
  fill: #9370DB;
  stroke: #9370DB;
  stroke-width: 1; }

#mermaid-1559364669233 #aggregationStart {
  fill: #ECECFF;
  stroke: #9370DB;
  stroke-width: 1; }

#mermaid-1559364669233 #aggregationEnd {
  fill: #ECECFF;
  stroke: #9370DB;
  stroke-width: 1; }

#mermaid-1559364669233 #dependencyStart {
  fill: #9370DB;
  stroke: #9370DB;
  stroke-width: 1; }

#mermaid-1559364669233 #dependencyEnd {
  fill: #9370DB;
  stroke: #9370DB;
  stroke-width: 1; }

#mermaid-1559364669233 #extensionStart {
  fill: #9370DB;
  stroke: #9370DB;
  stroke-width: 1; }

#mermaid-1559364669233 #extensionEnd {
  fill: #9370DB;
  stroke: #9370DB;
  stroke-width: 1; }

#mermaid-1559364669233 .commit-id,
#mermaid-1559364669233 .commit-msg,
#mermaid-1559364669233 .branch-label {
  fill: lightgrey;
  color: lightgrey; }
</style><style>#mermaid-1559364669233 {
    color: rgba(0, 0, 0, 0.65);
    font: ;
  }</style><g></g><defs><marker id="extensionStart" class="extension" refX="0" refY="7" markerWidth="190" markerHeight="240" orient="auto"><path d="M 1,7 L18,13 V 1 Z"></path></marker></defs><defs><marker id="extensionEnd" refX="19" refY="7" markerWidth="20" markerHeight="28" orient="auto"><path d="M 1,1 V 13 L18,7 Z"></path></marker></defs><defs><marker id="compositionStart" class="extension" refX="0" refY="7" markerWidth="190" markerHeight="240" orient="auto"><path d="M 18,7 L9,13 L1,7 L9,1 Z"></path></marker></defs><defs><marker id="compositionEnd" refX="19" refY="7" markerWidth="20" markerHeight="28" orient="auto"><path d="M 18,7 L9,13 L1,7 L9,1 Z"></path></marker></defs><defs><marker id="aggregationStart" class="extension" refX="0" refY="7" markerWidth="190" markerHeight="240" orient="auto"><path d="M 18,7 L9,13 L1,7 L9,1 Z"></path></marker></defs><defs><marker id="aggregationEnd" refX="19" refY="7" markerWidth="20" markerHeight="28" orient="auto"><path d="M 18,7 L9,13 L1,7 L9,1 Z"></path></marker></defs><defs><marker id="dependencyStart" class="extension" refX="0" refY="7" markerWidth="190" markerHeight="240" orient="auto"><path d="M 5,7 L9,13 L1,7 L9,1 Z"></path></marker></defs><defs><marker id="dependencyEnd" refX="19" refY="7" markerWidth="20" markerHeight="28" orient="auto"><path d="M 18,7 L9,13 L14,7 L9,1 Z"></path></marker></defs><g id="classId0" class="classGroup" transform="translate(12.34375,0 )"><rect x="0" y="0" width="58.5625" height="68.125"></rect><text x="5" y="15">Class01</text><line x1="0" y1="21" y2="21" x2="58.5625"></line><text x="5" y="31" fill="white" class="classText"><tspan x="5">int chimp</tspan><tspan x="5" dy="10">int gorilla</tspan></text><line x1="0" y1="47.046875" y2="47.046875" x2="58.5625"></line><text x="5" y="62.046875" fill="white" class="classText"><tspan x="5">size()</tspan></text></g><g id="classId1" class="classGroup" transform="translate(0,132.1640625 )"><rect x="0" y="0" width="83.25" height="30.046875"></rect><text x="5" y="15">AveryLongClass</text><line x1="0" y1="21.046875" y2="21.046875" x2="83.25"></line><text x="5" y="31.046875" fill="white" class="classText"></text><line x1="0" y1="26.046875" y2="26.046875" x2="83.25"></line><text x="5" y="41.046875" fill="white" class="classText"></text></g><g id="classId2" class="classGroup" transform="translate(133.25,19.0625 )"><rect x="0" y="0" width="47.765625" height="30"></rect><text x="5" y="15">Class03</text><line x1="0" y1="21" y2="21" x2="47.765625"></line><text x="5" y="31" fill="white" class="classText"></text><line x1="0" y1="26" y2="26" x2="47.765625"></line><text x="5" y="41" fill="white" class="classText"></text></g><g id="classId3" class="classGroup" transform="translate(133.25,132.1875 )"><rect x="0" y="0" width="47.765625" height="30"></rect><text x="5" y="15">Class04</text><line x1="0" y1="21" y2="21" x2="47.765625"></line><text x="5" y="31" fill="white" class="classText"></text><line x1="0" y1="26" y2="26" x2="47.765625"></line><text x="5" y="41" fill="white" class="classText"></text></g><g id="classId4" class="classGroup" transform="translate(231.015625,19.0625 )"><rect x="0" y="0" width="47.765625" height="30"></rect><text x="5" y="15">Class05</text><line x1="0" y1="21" y2="21" x2="47.765625"></line><text x="5" y="31" fill="white" class="classText"></text><line x1="0" y1="26" y2="26" x2="47.765625"></line><text x="5" y="41" fill="white" class="classText"></text></g><g id="classId5" class="classGroup" transform="translate(231.015625,132.1875 )"><rect x="0" y="0" width="47.765625" height="30"></rect><text x="5" y="15">Class06</text><line x1="0" y1="21" y2="21" x2="47.765625"></line><text x="5" y="31" fill="white" class="classText"></text><line x1="0" y1="26" y2="26" x2="47.765625"></line><text x="5" y="41" fill="white" class="classText"></text></g><g id="classId6" class="classGroup" transform="translate(425,118.125 )"><rect x="0" y="0" width="113.34375" height="58.125"></rect><text x="5" y="15">Class07</text><line x1="0" y1="21" y2="21" x2="113.34375"></line><text x="5" y="31" fill="white" class="classText"><tspan x="5">Object[] elementData</tspan></text><line x1="0" y1="37.046875" y2="37.046875" x2="113.34375"></line><text x="5" y="52.046875" fill="white" class="classText"><tspan x="5">equals()</tspan></text></g><g id="classId7" class="classGroup" transform="translate(457.7890625,226.25 )"><rect x="0" y="0" width="47.765625" height="30"></rect><text x="5" y="15">Class08</text><line x1="0" y1="21" y2="21" x2="47.765625"></line><text x="5" y="31" fill="white" class="classText"></text><line x1="0" y1="26" y2="26" x2="47.765625"></line><text x="5" y="41" fill="white" class="classText"></text></g><g id="classId8" class="classGroup" transform="translate(338.0078125,19.0625 )"><rect x="0" y="0" width="47.765625" height="30"></rect><text x="5" y="15">Class09</text><line x1="0" y1="21" y2="21" x2="47.765625"></line><text x="5" y="31" fill="white" class="classText"></text><line x1="0" y1="26" y2="26" x2="47.765625"></line><text x="5" y="41" fill="white" class="classText"></text></g><g id="classId9" class="classGroup" transform="translate(404.05859375,306.25 )"><rect x="0" y="0" width="26.21875" height="30"></rect><text x="5" y="15">C2</text><line x1="0" y1="21" y2="21" x2="26.21875"></line><text x="5" y="31" fill="white" class="classText"></text><line x1="0" y1="26" y2="26" x2="26.21875"></line><text x="5" y="41" fill="white" class="classText"></text></g><g id="classId10" class="classGroup" transform="translate(348.78125,132.1875 )"><rect x="0" y="0" width="26.21875" height="30"></rect><text x="5" y="15">C3</text><line x1="0" y1="21" y2="21" x2="26.21875"></line><text x="5" y="31" fill="white" class="classText"></text><line x1="0" y1="26" y2="26" x2="26.21875"></line><text x="5" y="41" fill="white" class="classText"></text></g><path d="M41.625,68.125L41.625,72.29166666666667C41.625,76.45833333333333,41.625,84.79166666666667,41.625,95.46484375C41.625,106.13802083333333,41.625,119.15104166666667,41.625,125.65755208333333L41.625,132.1640625" id="edge0" class="relation" marker-start="url(#extensionStart)"></path><g class="classLabel"><rect class="box" x="29.28125" y="101.140625" width="24.65625" height="16"></rect><text class="label" x="41.625" y="112.64453125" fill="red" text-anchor="middle">Cool</text></g><path d="M157.1328125,49.0625L157.1328125,56.40625C157.1328125,63.75,157.1328125,78.4375,157.1328125,92.29166666666667C157.1328125,106.14583333333333,157.1328125,119.16666666666667,157.1328125,125.67708333333333L157.1328125,132.1875" id="edge1" class="relation" marker-start="url(#compositionStart)"></path><path d="M254.8984375,49.0625L254.8984375,56.40625C254.8984375,63.75,254.8984375,78.4375,254.8984375,92.29166666666667C254.8984375,106.14583333333333,254.8984375,119.16666666666667,254.8984375,125.67708333333333L254.8984375,132.1875" id="edge2" class="relation" marker-start="url(#aggregationStart)"></path><path d="M481.671875,176.25L481.671875,180.41666666666666C481.671875,184.58333333333334,481.671875,192.91666666666666,481.671875,201.25C481.671875,209.58333333333334,481.671875,217.91666666666666,481.671875,222.08333333333334L481.671875,226.25" id="edge3" class="relation"></path><path d="M349.672371031746,49.0625L343.69051752645504,56.40625C337.708664021164,63.75,325.744957010582,78.4375,319.763103505291,94.79166666666667C313.78125,111.14583333333333,313.78125,129.16666666666666,313.78125,147.1875C313.78125,165.20833333333334,313.78125,183.22916666666666,313.78125,198.90625C313.78125,214.58333333333334,313.78125,227.91666666666666,313.78125,241.25C313.78125,254.58333333333334,313.78125,267.9166666666667,328.8274739583333,280.40467059608824C343.8736979166667,292.8926745255098,373.9661458333333,304.5353490510195,389.0123697916667,310.3566863137744L404.05859375,316.17802357652926" id="edge4" class="relation" marker-end="url(#dependencyEnd)"></path><g class="classLabel"><rect class="box" x="283.828125" y="209.75" width="59.875" height="16"></rect><text class="label" x="313.78125" y="221.25" fill="red" text-anchor="middle">Where am i?</text></g><path d="M361.890625,49.0625L361.890625,56.40625C361.890625,63.75,361.890625,78.4375,361.890625,92.29166666666667C361.890625,106.14583333333333,361.890625,119.16666666666667,361.890625,125.67708333333333L361.890625,132.1875" id="edge5" class="relation" marker-end="url(#compositionEnd)"></path><path d="M385.7734375,45.838788970780065L401.7565104166667,53.719824142316725C417.7395833333333,61.60085931385337,449.7057291666667,77.36292965692668,465.6888020833333,89.41063149513002C481.671875,101.45833333333333,481.671875,109.79166666666667,481.671875,113.95833333333333L481.671875,118.125" id="edge6" class="relation" marker-end="url(#extensionEnd)"></path><path d="M481.671875,256.25L481.671875,260.4166666666667C481.671875,264.5833333333333,481.671875,272.9166666666667,473.1061197916667,282.39510789479C464.5403645833333,291.8735491229133,447.4088541666667,302.4970982458265,438.8430989583333,307.80887280728314L430.27734375,313.12064736873975" id="edge7" class="relation" marker-start="url(#dependencyStart)" marker-end="url(#dependencyEnd)"></path><g class="classLabel"><rect class="box" x="431.046875" y="285.671875" width="49.84375" height="16"></rect><text class="label" x="455.974609375" y="297.1853236843699" fill="red" text-anchor="middle">Cool label</text></g></svg>